#N canvas 123 321 450 300 10;
#X obj 22 82 bng 15 250 50 0 empty empty empty 17 7 0 10 -262144 -1
-1;
#X obj 126 124 + 1;
#X floatatom 170 201 5 0 0 0 - - -, f 5;
#X obj 84 125 int;
#X msg 130 77 0;
#X obj 21 19 inlet;
#X obj 169 266 outlet;
#X obj 305 20 inlet;
#X obj 103 20 inlet;
#X text 307 42 bang to reset 0;
#X text 111 41 max;
#X text 34 36 val / bang;
#X obj 186 20 inlet;
#X text 195 43 delta;
#X obj 94 199 route 1;
#X obj 72 162 > \$1;
#X connect 0 0 3 0;
#X connect 1 0 2 0;
#X connect 1 0 3 1;
#X connect 1 0 15 0;
#X connect 2 0 6 0;
#X connect 3 0 1 0;
#X connect 4 0 3 1;
#X connect 5 0 3 0;
#X connect 7 0 4 0;
#X connect 8 0 15 1;
#X connect 12 0 1 1;
#X connect 14 0 4 0;
#X connect 15 0 14 0;
