#N canvas 0 22 685 444 10;
#X floatatom 313 109 5 0 0 0 - - -, f 5;
#X obj 130 294 delread~ dL 400;
#X obj 334 261 delwrite~ dR 400;
#X obj 129 261 delwrite~ dL 400;
#X obj 148 329 *~ 0.5;
#X obj 453 108 nbx 5 14 0 1 0 0 empty empty empty 0 -8 0 10 -262144
-1 -1 0 256;
#X obj 130 238 +~;
#X obj 338 239 +~;
#X obj 233 296 delread~ dL 400;
#X obj 247 332 *~ 0.5;
#X text 326 43 delay time[ms];
#X text 480 34 feedback;
#X obj 83 11 inlet~;
#X obj 184 6 inlet~;
#X obj 313 17 inlet;
#X obj 454 11 inlet;
#X obj 453 80 clip 0 1;
#X obj 314 79 clip 0 1000;
#X obj 115 412 outlet~;
#X obj 255 421 outlet~;
#X connect 0 0 1 0;
#X connect 0 0 8 0;
#X connect 1 0 4 0;
#X connect 1 0 18 0;
#X connect 4 0 6 1;
#X connect 5 0 4 1;
#X connect 5 0 9 1;
#X connect 6 0 3 0;
#X connect 7 0 2 0;
#X connect 8 0 9 0;
#X connect 8 0 7 1;
#X connect 8 0 19 0;
#X connect 12 0 6 0;
#X connect 13 0 7 0;
#X connect 14 0 17 0;
#X connect 15 0 16 0;
#X connect 16 0 5 0;
#X connect 17 0 0 0;
