#N canvas 268 23 1213 694 10;
#X msg 92 38 \; pd dsp 1;
#X msg 92 76 \; pd dsp 0;
#X obj 489 146 dac~ 1 2;
#X obj 474 78 bng 15 250 50 0 empty empty empty 17 7 0 10 -262144 -1
-1;
#X obj 91 13 loadbang;
#X obj 523 240 bonk~;
#X obj 550 262 bng 15 250 50 0 empty empty empty 17 7 0 10 -262144
-1 -1;
#X obj 428 274 timer 1 samp;
#X obj 257 33 key;
#X obj 30 273 soundfiler;
#X msg 165 39 \; smp1 const 0 \;;
#X msg 560 433 clear;
#X msg 567 461 write cues.txt;
#X obj 397 354 pack 0 0;
#X floatatom 512 402 5 0 0 0 - - -, f 5;
#X obj 512 429 + 1;
#X obj 491 547 pack 0 0;
#X obj 462 517 coll cues1;
#C restore;
#X obj 540 516 coll cues2;
#C restore;
#X text 444 54 Analyze Cue Points;
#X text 510 336 Playback;
#X msg 600 211 minvel 10;
#X msg 548 174 thresh 15 20;
#X floatatom 636 338 5 0 0 0 - - -, f 5;
#X obj 636 316 i;
#X obj 585 354 random 10;
#X obj 582 319 bng 15 250 50 0 empty empty empty 17 7 0 10 -262144
-1 -1;
#X floatatom 288 32 5 0 0 0 - - -, f 5;
#X obj 552 144 loadbang;
#X obj 959 296 bng 15 250 50 0 empty empty empty 17 7 0 10 -262144
-1 -1;
#X obj 257 78 s SPC;
#X obj 752 27 r SPC;
#X floatatom 886 400 5 0 0 0 - - -, f 5;
#X obj 1117 292 bng 15 250 50 0 empty empty empty 17 7 0 10 -262144
-1 -1;
#X obj 573 121 s SNUM;
#X obj 646 292 r SNUM;
#X floatatom 916 252 5 0 0 0 - - -, f 5;
#X obj 894 217 bng 15 250 50 0 empty empty empty 17 7 0 10 -262144
-1 -1;
#X obj 850 217 bng 15 250 50 0 empty empty empty 17 7 0 10 -262144
-1 -1;
#X obj 944 219 bng 15 250 50 0 empty empty empty 17 7 0 10 -262144
-1 -1;
#X floatatom 1007 288 5 0 0 0 - - -, f 5;
#X floatatom 973 279 5 0 0 0 - - -, f 5;
#X obj 968 409 bng 15 250 50 0 empty empty empty 17 7 0 10 -262144
-1 -1;
#X obj 1069 407 bng 15 250 50 0 empty empty empty 17 7 0 10 -262144
-1 -1;
#X floatatom 992 399 5 0 0 0 - - -, f 5;
#X obj 889 484 + 0;
#X floatatom 967 457 5 0 0 0 - - -, f 5;
#X obj 920 485 t b f;
#X obj 722 81 timer 1 msec;
#X obj 766 54 bng 15 250 50 0 empty empty empty 17 7 0 10 -262144 -1
-1;
#X floatatom 703 148 10 0 0 0 - - -, f 10;
#X obj 705 126 - 0;
#X obj 722 106 f;
#X obj 975 38 adc~ 1 2;
#X obj 1004 116 bonk~;
#X msg 1012 96 thresh 15 20;
#X obj 1057 42 loadbang;
#X floatatom 939 138 5 0 0 0 - - -, f 5;
#X floatatom 1073 239 5 0 0 0 - - -, f 5;
#X msg 1069 192 6;
#X floatatom 891 139 5 0 0 0 - - -, f 5;
#X obj 959 339 - 1;
#X obj 740 409 clip 0 10;
#X obj 803 385 - 1;
#X obj 443 586 gate;
#X obj 439 561 tgl 15 0 empty empty empty 17 7 0 10 -262144 -1 -1 0
1;
#X msg 51 245 read -resize snd/akatombo1.aiff smpL smpR;
#X obj 498 99 tabplay~ smpL;
#N canvas 0 22 450 278 (subpatch) 0;
#X array smpL 604510 float 0;
#X coords 0 1 604509 -1 200 140 1;
#X restore 31 332 graph;
#N canvas 0 22 450 278 (subpatch) 0;
#X array smpR 604510 float 0;
#X coords 0 1 604509 -1 200 140 1;
#X restore 31 488 graph;
#X msg 40 222 read -resize snd/nnmr1.aiff smpL smpR;
#X msg 30 201 read -resize snd/sunsong-pt1.aiff smpL smpR;
#X msg 387 124 0;
#X msg 622 120 1;
#X floatatom 762 387 5 0 0 0 - - -, f 5;
#X floatatom 821 356 5 0 0 0 - - -, f 5;
#X obj 968 432 counter4 5 --;
#X floatatom 1019 377 5 0 0 0 - - -, f 5;
#X obj 959 319 counter4 100 ------;
#X obj 305 327 counter4 1000;
#X msg 558 194 thresh 5 15;
#X obj 695 539 adc~;
#X obj 806 605 unpack;
#X floatatom 806 649 0 0 0 0 - - -;
#X floatatom 841 629 0 0 0 0 - - -;
#X obj 806 582 route 1 2 3 4;
#X floatatom 778 679 0 0 0 0 - - -;
#X text 778 701 amplitude;
#X obj 695 560 fiddle~ 2048 1 20 3;
#X obj 732 661 gate;
#X obj 732 637 > 0;
#X floatatom 732 687 5 0 10000 0 - - -, f 5;
#X obj 12 118 openpanel;
#X obj 12 99 bng 15 250 50 0 empty empty empty 0 -6 0 8 -262144 -1
-1;
#X msg 12 178 read -resize \$1 smpL smpR;
#X obj 28 295 s samplenum;
#X obj 271 371 - 0;
#X obj 272 601 line~;
#X obj 271 554 pack 0 0;
#X obj 263 472 bng 15 250 50 0 empty empty empty 17 7 0 10 -262144
-1 -1;
#X obj 267 397 expr 1000*$f1/44100;
#X obj 264 422 print dt(ms);
#X msg 133 283 100 \, 44100 1000.3;
#X obj 331 517 pipe 1;
#X obj 1020 255 - 4;
#X text 683 469 void list \, use most right;
#X obj 674 720 bng 15 250 50 0 empty empty empty 17 7 0 10 -262144
-1 -1;
#X obj 678 769 s baseP;
#X obj 676 746 i;
#X text 668 701 set base pitch;
#X obj 499 768 s pShift;
#X obj 317 479 r pShift;
#X obj 292 474 / 1;
#X obj 507 750 nbx 5 14 -1e+37 1e+37 0 0 empty empty empty 0 -8 0 10
-262144 -1 -1 0.916853 256;
#X obj 501 725 expr 1.0+0.4*($f1-$f2)/$f2;
#X obj 212 632 tabread4~ smpL;
#X obj 307 632 tabread4~ smpR;
#X obj 298 84 s SETP;
#X obj 257 57 sel 32 115;
#X obj 630 659 r SETP;
#X obj 693 448 sel 21 23 24 25 26;
#X obj 843 164 moses 100;
#X obj 892 191 moses 200;
#X obj 712 212 route 1;
#X obj 104 688 gate~;
#X obj 99 746 dac~ 1 2, f 13;
#X obj 224 734 delay_efx1;
#X msg 286 693 100;
#X msg 314 673 350;
#X obj 172 690 gate~;
#X obj 711 280 tgl 15 0 empty empty empty 17 7 0 10 -262144 -1 -1 0
1;
#X msg 675 235 0;
#X msg 720 241 1;
#X obj 717 189 random 3;
#X obj 728 317 s DON;
#X obj 124 636 r DON;
#X obj 362 705 nbx 5 14 -1e+37 1e+37 0 0 empty empty empty 0 -8 0 10
-262144 -1 -1 0.6 256;
#X msg 389 663 0.6;
#X obj 429 676 loadbang;
#X obj 205 144 makefilename %s_cues.txt;
#X msg 575 482 write \$1;
#X obj 203 164 s CUE_FILE;
#X msg 86 113 snd/sunsong-pt1.aiff;
#X obj 24 146 symbol;
#X connect 3 0 7 0;
#X connect 3 0 11 0;
#X connect 3 0 67 0;
#X connect 3 0 72 0;
#X connect 3 0 79 3;
#X connect 4 0 0 0;
#X connect 5 1 6 0;
#X connect 6 0 7 1;
#X connect 6 0 79 0;
#X connect 7 0 13 1;
#X connect 8 0 27 0;
#X connect 8 0 118 0;
#X connect 9 0 95 0;
#X connect 11 0 17 0;
#X connect 11 0 18 0;
#X connect 12 0 17 0;
#X connect 13 0 17 0;
#X connect 13 0 18 0;
#X connect 14 0 15 0;
#X connect 14 0 17 0;
#X connect 15 0 18 0;
#X connect 16 0 64 1;
#X connect 17 0 16 0;
#X connect 17 0 96 1;
#X connect 17 0 97 0;
#X connect 18 0 16 1;
#X connect 18 0 96 0;
#X connect 18 0 103 0;
#X connect 21 0 5 0;
#X connect 23 0 25 1;
#X connect 24 0 23 0;
#X connect 24 0 36 0;
#X connect 24 0 63 0;
#X connect 25 0 14 0;
#X connect 26 0 25 0;
#X connect 28 0 22 0;
#X connect 28 0 80 0;
#X connect 29 0 78 0;
#X connect 31 0 49 0;
#X connect 32 0 45 0;
#X connect 33 0 78 3;
#X connect 35 0 24 0;
#X connect 36 0 104 0;
#X connect 37 0 42 0;
#X connect 38 0 46 0;
#X connect 39 0 29 0;
#X connect 40 0 78 1;
#X connect 41 0 78 0;
#X connect 42 0 76 0;
#X connect 43 0 76 3;
#X connect 44 0 76 0;
#X connect 45 0 62 0;
#X connect 46 0 47 0;
#X connect 47 0 45 0;
#X connect 47 1 45 1;
#X connect 48 0 51 0;
#X connect 48 0 52 1;
#X connect 49 0 48 1;
#X connect 49 0 52 0;
#X connect 49 0 131 0;
#X connect 49 0 133 0;
#X connect 50 0 121 0;
#X connect 51 0 50 0;
#X connect 52 0 51 1;
#X connect 53 0 54 0;
#X connect 54 1 49 0;
#X connect 55 0 54 0;
#X connect 56 0 55 0;
#X connect 56 0 59 0;
#X connect 57 0 122 1;
#X connect 58 0 78 2;
#X connect 59 0 58 0;
#X connect 60 0 121 1;
#X connect 61 0 32 0;
#X connect 62 0 120 0;
#X connect 62 0 14 0;
#X connect 63 0 62 2;
#X connect 65 0 64 0;
#X connect 66 0 9 0;
#X connect 67 0 2 1;
#X connect 67 0 2 0;
#X connect 67 0 5 0;
#X connect 67 1 34 0;
#X connect 67 1 73 0;
#X connect 67 1 12 0;
#X connect 70 0 9 0;
#X connect 71 0 9 0;
#X connect 72 0 65 0;
#X connect 73 0 65 0;
#X connect 74 0 62 1;
#X connect 75 0 63 1;
#X connect 76 0 46 0;
#X connect 77 0 76 1;
#X connect 78 0 61 0;
#X connect 79 0 13 0;
#X connect 79 0 24 1;
#X connect 80 0 5 0;
#X connect 81 0 88 0;
#X connect 82 0 83 0;
#X connect 82 0 90 0;
#X connect 82 0 89 1;
#X connect 82 1 84 0;
#X connect 85 0 82 0;
#X connect 88 3 86 0;
#X connect 88 4 85 0;
#X connect 89 0 91 0;
#X connect 89 0 108 1;
#X connect 89 0 114 0;
#X connect 90 0 89 0;
#X connect 92 0 94 0;
#X connect 92 0 139 0;
#X connect 92 0 143 1;
#X connect 93 0 92 0;
#X connect 94 0 9 0;
#X connect 96 0 100 0;
#X connect 97 0 115 0;
#X connect 97 0 116 0;
#X connect 98 0 97 0;
#X connect 99 0 98 0;
#X connect 100 0 101 0;
#X connect 100 0 112 0;
#X connect 102 0 97 0;
#X connect 103 0 98 0;
#X connect 104 0 40 0;
#X connect 106 0 108 0;
#X connect 108 0 107 0;
#X connect 108 0 114 1;
#X connect 111 0 112 1;
#X connect 112 0 98 1;
#X connect 114 0 113 0;
#X connect 114 0 110 0;
#X connect 115 0 125 0;
#X connect 115 0 126 0;
#X connect 116 0 125 1;
#X connect 116 0 126 1;
#X connect 118 0 30 0;
#X connect 118 1 117 0;
#X connect 119 0 106 0;
#X connect 121 0 38 0;
#X connect 121 1 122 0;
#X connect 122 0 37 0;
#X connect 122 1 39 0;
#X connect 123 0 132 0;
#X connect 124 0 125 0;
#X connect 126 0 124 1;
#X connect 126 1 129 1;
#X connect 127 0 126 2;
#X connect 128 0 126 2;
#X connect 129 0 125 1;
#X connect 130 0 134 0;
#X connect 131 0 130 0;
#X connect 132 0 130 0;
#X connect 133 0 123 0;
#X connect 135 0 124 0;
#X connect 135 0 129 0;
#X connect 136 0 126 3;
#X connect 137 0 136 0;
#X connect 138 0 137 0;
#X connect 138 0 128 0;
#X connect 139 0 141 0;
